<?xml version="1.0" standalone="no"?>
<!DOCTYPE svg PUBLIC "-//W3C//DTD SVG 20010904//EN"
 "http://www.w3.org/TR/2001/REC-SVG-20010904/DTD/svg10.dtd">
<svg version="1.0" xmlns="http://www.w3.org/2000/svg"
 width="1024.000000pt" height="768.000000pt" viewBox="0 0 1024.000000 768.000000"
 preserveAspectRatio="xMidYMid meet">
<metadata>
Created by potrace 1.16, written by Peter Selinger 2001-2019
</metadata>
<g transform="translate(0.000000,768.000000) scale(0.100000,-0.100000)"
fill="#000000" stroke="none">
<path d="M2766 5974 c-176 -43 -324 -189 -371 -369 -13 -52 -15 -285 -15
-1952 0 -1343 3 -1907 11 -1945 37 -178 179 -329 358 -382 67 -20 198 -21 267
-2 127 34 252 132 311 243 56 105 63 146 63 373 0 153 4 221 15 265 47 180
195 327 371 368 46 11 125 13 357 9 336 -5 371 -1 480 55 120 63 211 176 251
312 18 62 21 184 5 251 -33 142 -139 272 -276 338 l-78 37 -370 5 c-349 5
-373 6 -423 27 -165 67 -287 208 -321 371 -7 36 -11 298 -11 815 0 487 -4 778
-11 807 -61 266 -344 439 -613 374z"/>
<path d="M6749 5966 c-123 -34 -249 -134 -306 -243 -56 -105 -63 -146 -63
-373 0 -153 -4 -221 -15 -265 -47 -180 -195 -327 -371 -368 -46 -11 -125 -13
-357 -9 -336 5 -371 1 -480 -55 -120 -63 -211 -176 -251 -312 -18 -62 -21
-184 -5 -251 33 -142 139 -272 276 -338 l78 -37 370 -5 c349 -5 373 -6 423
-27 165 -67 287 -208 321 -371 7 -36 11 -298 11 -815 0 -487 4 -778 11 -807
41 -180 195 -331 381 -375 264 -62 533 103 603 370 13 52 15 285 15 1952 0
1343 -3 1907 -11 1945 -37 178 -179 329 -358 382 -65 19 -206 20 -272 2z"/>
</g>
</svg>
